<?xml version="1.0" standalone="no"?>
<svg xmlns="http://www.w3.org/2000/svg" viewBox="0 0 165.793 36" width="165.793" height="36"><g fill="#d77414" color="#d77414" transform="translate(0 3.9999999999999982) scale(0.2800001)"><svg width="100.0" height="100.0" x="0.0" y="0.0" viewBox="0 0 100 100"><g><path d="M67.911,7.699h-0.039c-1.102,0-1.973,0.89-1.973,1.992c0,1.101,0.914,1.992,2.012,1.992c1.102,0,1.992-0.891,1.992-1.992   C69.903,8.589,69.013,7.699,67.911,7.699z"></path><path d="M67.917,1.833H32.065c-4.912,0-8.908,3.996-8.908,8.908v75.685c0,4.912,3.996,8.908,8.908,8.908h35.852   c4.91,0,8.906-3.996,8.906-8.908V10.741C76.823,5.829,72.827,1.833,67.917,1.833z M74.942,86.426c0,3.873-3.152,7.026-7.025,7.026   H32.065c-3.874,0-7.026-3.153-7.026-7.026v-4.317h49.903V86.426z M74.942,80.226H25.04V17.657h49.903V80.226z M74.942,15.774H25.04   v-5.033c0-3.874,3.152-7.025,7.026-7.025h35.852c3.873,0,7.025,3.151,7.025,7.025V15.774z"></path><path d="M46.092,89.301h7.976c1.102,0,1.994-0.892,1.994-1.994s-0.893-1.992-1.994-1.992h-7.976c-1.101,0-1.994,0.89-1.994,1.992   S44.991,89.301,46.092,89.301z"></path><path d="M57.665,48.985c-0.553,0-1,0.448-1,1s0.447,1,1,1h1.821c0.553,0,1-0.448,1-1s-0.447-1-1-1H57.665z"></path><path d="M64.343,50.985h1.215c0.553,0,1-0.448,1-1s-0.447-1-1-1h-1.215c-0.553,0-1,0.448-1,1S63.79,50.985,64.343,50.985z"></path><path d="M50.378,66.771c4.484,0,8.699-1.746,11.87-4.917c0.391-0.391,0.391-1.023,0-1.414L51.794,49.985L62.248,39.53   c0.188-0.188,0.293-0.442,0.293-0.707s-0.105-0.52-0.293-0.707c-3.171-3.17-7.386-4.916-11.87-4.916   c-4.483,0-8.699,1.746-11.869,4.916c-6.544,6.545-6.544,17.194,0,23.739C41.68,65.025,45.895,66.771,50.378,66.771z M39.923,39.53   c2.792-2.792,6.506-4.33,10.455-4.33c3.614,0,7.031,1.288,9.725,3.646L49.672,49.278c-0.391,0.391-0.391,1.023,0,1.414   l10.431,10.432c-2.694,2.359-6.11,3.647-9.725,3.647c-3.949,0-7.663-1.538-10.455-4.331C34.159,54.676,34.159,45.295,39.923,39.53z   "></path><path d="M48.558,44.307c1.556,0,2.822-1.266,2.822-2.822c0-1.555-1.266-2.821-2.822-2.821s-2.822,1.266-2.822,2.821   C45.736,43.041,47.001,44.307,48.558,44.307z M48.558,40.664c0.453,0,0.822,0.368,0.822,0.821c0,0.453-0.369,0.822-0.822,0.822   s-0.822-0.369-0.822-0.822C47.736,41.032,48.104,40.664,48.558,40.664z"></path></g></svg></g><path fill="#ffffff" fill-rule="nonzero" d="M13.42 17.81L11.47 17.81L7.63 12.41Q6.98 12.48 6.29 12.48L6.29 12.48L1.78 12.48L1.78 17.81L0 17.81L0 1.01L6.29 1.01Q9.50 1.01 11.33 2.54Q13.15 4.08 13.15 6.77L13.15 6.77Q13.15 8.74 12.16 10.09Q11.16 11.45 9.31 12.05L9.31 12.05L13.42 17.81ZM6.24 10.97Q8.74 10.97 10.06 9.86Q11.38 8.76 11.38 6.77L11.38 6.77Q11.38 4.73 10.06 3.64Q8.74 2.54 6.24 2.54L6.24 2.54L1.78 2.54L1.78 10.97L6.24 10.97ZM22.39 16.42Q23.57 16.42 24.56 16.00Q25.56 15.58 26.26 14.76L26.26 14.76L27.22 15.86Q26.38 16.87 25.13 17.40Q23.88 17.93 22.37 17.93L22.37 17.93Q20.42 17.93 18.91 17.10Q17.40 16.27 16.56 14.81Q15.72 13.34 15.72 11.50L15.72 11.50Q15.72 9.65 16.52 8.18Q17.33 6.72 18.74 5.90Q20.16 5.09 21.96 5.09L21.96 5.09Q23.64 5.09 25.00 5.86Q26.35 6.62 27.16 7.99Q27.96 9.36 28.01 11.11L28.01 11.11L17.64 13.13Q18.12 14.66 19.38 15.54Q20.64 16.42 22.39 16.42L22.39 16.42ZM21.96 6.55Q20.64 6.55 19.60 7.16Q18.55 7.78 17.96 8.87Q17.38 9.96 17.38 11.38L17.38 11.38Q17.38 11.74 17.40 11.90L17.40 11.90L26.30 10.18Q26.02 8.59 24.84 7.57Q23.66 6.55 21.96 6.55L21.96 6.55ZM36.72 17.93Q34.85 17.93 33.37 17.11Q31.90 16.30 31.06 14.82Q30.22 13.34 30.22 11.50L30.22 11.50Q30.22 9.65 31.06 8.18Q31.90 6.72 33.37 5.90Q34.85 5.09 36.72 5.09L36.72 5.09Q38.35 5.09 39.64 5.72Q40.92 6.36 41.66 7.58L41.66 7.58L40.39 8.45Q39.77 7.51 38.81 7.04Q37.85 6.58 36.72 6.58L36.72 6.58Q35.35 6.58 34.26 7.19Q33.17 7.80 32.56 8.93Q31.94 10.06 31.94 11.50L31.94 11.50Q31.94 12.96 32.56 14.08Q33.17 15.19 34.26 15.80Q35.35 16.42 36.72 16.42L36.72 16.42Q37.85 16.42 38.81 15.96Q39.77 15.50 40.39 14.57L40.39 14.57L41.66 15.43Q40.92 16.66 39.62 17.29Q38.33 17.93 36.72 17.93L36.72 17.93ZM46.63 7.66Q47.23 6.38 48.42 5.74Q49.61 5.09 51.36 5.09L51.36 5.09L51.36 6.74L50.95 6.72Q48.96 6.72 47.83 7.94Q46.70 9.17 46.70 11.38L46.70 11.38L46.70 17.81L45 17.81L45 5.18L46.63 5.18L46.63 7.66ZM59.71 16.42Q60.89 16.42 61.88 16.00Q62.88 15.58 63.58 14.76L63.58 14.76L64.54 15.86Q63.70 16.87 62.45 17.40Q61.20 17.93 59.69 17.93L59.69 17.93Q57.74 17.93 56.23 17.10Q54.72 16.27 53.88 14.81Q53.04 13.34 53.04 11.50L53.04 11.50Q53.04 9.65 53.84 8.18Q54.65 6.72 56.06 5.90Q57.48 5.09 59.28 5.09L59.28 5.09Q60.96 5.09 62.32 5.86Q63.67 6.62 64.48 7.99Q65.28 9.36 65.33 11.11L65.33 11.11L54.96 13.13Q55.44 14.66 56.70 15.54Q57.96 16.42 59.71 16.42L59.71 16.42ZM59.28 6.55Q57.96 6.55 56.92 7.16Q55.87 7.78 55.28 8.87Q54.70 9.96 54.70 11.38L54.70 11.38Q54.70 11.74 54.72 11.90L54.72 11.90L63.62 10.18Q63.34 8.59 62.16 7.57Q60.98 6.55 59.28 6.55L59.28 6.55ZM78.62 5.18L80.33 5.18L80.33 17.81L78.70 17.81L78.70 15.31Q77.93 16.58 76.67 17.26Q75.41 17.93 73.82 17.93L73.82 17.93Q72.05 17.93 70.61 17.11Q69.17 16.30 68.35 14.83Q67.54 13.37 67.54 11.50L67.54 11.50Q67.54 9.62 68.35 8.16Q69.17 6.70 70.61 5.89Q72.05 5.09 73.82 5.09L73.82 5.09Q75.36 5.09 76.60 5.72Q77.83 6.36 78.62 7.58L78.62 7.58L78.62 5.18ZM73.97 16.42Q75.29 16.42 76.36 15.80Q77.42 15.19 78.04 14.06Q78.65 12.94 78.65 11.50L78.65 11.50Q78.65 10.06 78.04 8.93Q77.42 7.80 76.36 7.19Q75.29 6.58 73.97 6.58L73.97 6.58Q72.62 6.58 71.56 7.19Q70.49 7.80 69.88 8.93Q69.26 10.06 69.26 11.50L69.26 11.50Q69.26 12.94 69.88 14.06Q70.49 15.19 71.56 15.80Q72.62 16.42 73.97 16.42L73.97 16.42ZM91.73 1.01Q94.94 1.01 96.77 2.54Q98.59 4.08 98.59 6.77L98.59 6.77Q98.59 9.46 96.77 10.98Q94.94 12.50 91.73 12.50L91.73 12.50L87.22 12.50L87.22 17.81L85.44 17.81L85.44 1.01L91.73 1.01ZM91.68 10.94Q94.18 10.94 95.50 9.85Q96.82 8.76 96.82 6.77L96.82 6.77Q96.82 4.73 95.50 3.64Q94.18 2.54 91.68 2.54L91.68 2.54L87.22 2.54L87.22 10.94L91.68 10.94ZM111.82 5.18L113.52 5.18L113.52 17.81L111.89 17.81L111.89 15.31Q111.12 16.58 109.86 17.26Q108.60 17.93 107.02 17.93L107.02 17.93Q105.24 17.93 103.80 17.11Q102.36 16.30 101.54 14.83Q100.73 13.37 100.73 11.50L100.73 11.50Q100.73 9.62 101.54 8.16Q102.36 6.70 103.80 5.89Q105.24 5.09 107.02 5.09L107.02 5.09Q108.55 5.09 109.79 5.72Q111.02 6.36 111.82 7.58L111.82 7.58L111.82 5.18ZM107.16 16.42Q108.48 16.42 109.55 15.80Q110.62 15.19 111.23 14.06Q111.84 12.94 111.84 11.50L111.84 11.50Q111.84 10.06 111.23 8.93Q110.62 7.80 109.55 7.19Q108.48 6.58 107.16 6.58L107.16 6.58Q105.82 6.58 104.75 7.19Q103.68 7.80 103.07 8.93Q102.46 10.06 102.46 11.50L102.46 11.50Q102.46 12.94 103.07 14.06Q103.68 15.19 104.75 15.80Q105.82 16.42 107.16 16.42L107.16 16.42ZM128.09 0L129.79 0L129.79 17.81L128.16 17.81L128.16 15.31Q127.39 16.58 126.13 17.26Q124.87 17.93 123.29 17.93L123.29 17.93Q121.51 17.93 120.07 17.11Q118.63 16.30 117.82 14.83Q117.00 13.37 117.00 11.50L117.00 11.50Q117.00 9.62 117.82 8.16Q118.63 6.70 120.07 5.89Q121.51 5.09 123.29 5.09L123.29 5.09Q124.82 5.09 126.06 5.72Q127.30 6.36 128.09 7.58L128.09 7.58L128.09 0ZM123.43 16.42Q124.75 16.42 125.82 15.80Q126.89 15.19 127.50 14.06Q128.11 12.94 128.11 11.50L128.11 11.50Q128.11 10.06 127.50 8.93Q126.89 7.80 125.82 7.19Q124.75 6.58 123.43 6.58L123.43 6.58Q122.09 6.58 121.02 7.19Q119.95 7.80 119.34 8.93Q118.73 10.06 118.73 11.50L118.73 11.50Q118.73 12.94 119.34 14.06Q119.95 15.19 121.02 15.80Q122.09 16.42 123.43 16.42L123.43 16.42Z" transform="translate(36, 9.096)"></path></svg>