<?xml version="1.0" standalone="no"?>
<svg xmlns="http://www.w3.org/2000/svg" viewBox="0 0 165.793 36" width="165.793" height="36"><g fill="#000000" color="#000000" transform="translate(0 3.9999999999999982) scale(0.2800001)"><svg width="100.0" height="100.0" x="0.0" y="0.0" viewBox="0 0 100 100"><path d="M52.4,66.6v16c0,2.5-2,4.4-4.4,4.4H15c-2.5,0-4.4-2-4.4-4.4V17.3c0-2.5,2-4.4,4.4-4.4h6.5c0,0.1,0,0.1,0,0.3v0.3  c0,1.9,1.6,3.4,3.4,3.4h13c1.9,0,3.4-1.6,3.4-3.4V13c0-0.1,0-0.1,0-0.3h6.6c2.5,0,4.4,2,4.4,4.4v0.6h5.1v-0.5  c-0.1-5.2-4.2-9.4-9.5-9.4h-33c-5.1,0-9.4,4.3-9.4,9.4v65.5c0,5.1,4.3,9.4,9.4,9.4H48c5.1,0,9.4-4.3,9.4-9.4V66.6H52.4z"></path><rect x="49.1" y="38.2" width="4.5" height="2.4"></rect><path d="M52.2,42.3l-3.6,2.9c-0.7,0.6-0.8,1.6-0.2,2.2c0.6,0.7,1.6,0.8,2.2,0.2l3.6-2.9c0.7-0.6,0.8-1.6,0.2-2.2  C53.8,41.9,52.8,41.8,52.2,42.3z"></path><path d="M36.6,31.1c-5.9,0-10.7,4.8-10.7,10.7c0,5.9,4.8,10.7,10.7,10.7c5.9,0,10.7-4.8,10.7-10.7C47.3,35.9,42.5,31.1,36.6,31.1z   M41.8,44.1h-3.1v3.1c0,1.2-1,2.1-2.1,2.1c-1.2,0-2.1-1-2.1-2.1v-3h-3.1c-1.2,0-2.1-1-2.1-2.1c0-1.2,1-2.1,2.1-2.1h3.1v-3.1  c0-1.2,1-2.1,2.1-2.1c1.2,0,2.1,1,2.1,2.1v3.1h3.1c1.2,0,2.1,1,2.1,2.1C43.9,43.1,43,44.1,41.8,44.1z"></path><path d="M59.2,42.3l-3.6,2.9c-0.7,0.6-0.8,1.6-0.2,2.2c0.6,0.7,1.6,0.8,2.2,0.2l3.6-2.9c0.7-0.6,0.8-1.6,0.2-2.2  C60.9,41.9,59.9,41.8,59.2,42.3z"></path><path d="M92,20.8H19c-1.4,0-2.5,1.1-2.5,2.5v53c0,1,0.6,1.9,1.5,2.3c0.3,0.1,0.7,0.2,1,0.2c0.6,0,1.2-0.2,1.7-0.7l15.6-14.4H92  c1.4,0,2.5-1.1,2.5-2.5V23.3C94.5,21.9,93.4,20.8,92,20.8z M74.4,57.8c-2.4,0-4.7-0.6-6.8-1.5H43.4c-2.1,1-4.4,1.5-6.8,1.5  c-8.7,0-15.8-7.1-15.8-15.8s7.1-15.8,15.8-15.8c2.4,0,4.7,0.6,6.8,1.5h24.2c2.1-1,4.4-1.5,6.8-1.5c8.7,0,15.8,7.1,15.8,15.8  C90.2,50.7,83.1,57.8,74.4,57.8z"></path><rect x="56.1" y="38.2" width="4.5" height="2.4"></rect><path d="M74.2,31.1c-5.9,0-10.7,4.8-10.7,10.7c0,5.9,4.8,10.7,10.7,10.7c5.9,0,10.7-4.8,10.7-10.7C84.9,35.9,80.1,31.1,74.2,31.1z   M74.2,35c1.3,0,2.4,1.1,2.4,2.4c0,1.3-1.1,2.4-2.4,2.4c-1.3,0-2.4-1.1-2.4-2.4C71.8,36.1,72.9,35,74.2,35z M69.9,44.5  c-1.3,0-2.4-1.1-2.4-2.4s1.1-2.4,2.4-2.4s2.4,1.1,2.4,2.4S71.2,44.5,69.9,44.5z M74.5,48.9c-1.3,0-2.4-1.1-2.4-2.4s1.1-2.4,2.4-2.4  s2.4,1.1,2.4,2.4S75.9,48.9,74.5,48.9z M78.9,44.2c-1.3,0-2.4-1.1-2.4-2.4c0-1.3,1.1-2.4,2.4-2.4c1.3,0,2.4,1.1,2.4,2.4  C81.3,43.1,80.2,44.2,78.9,44.2z"></path></svg></g><path fill="#000000" fill-rule="nonzero" d="M13.42 17.81L11.47 17.81L7.63 12.41Q6.98 12.48 6.29 12.48L6.29 12.48L1.78 12.48L1.78 17.81L0 17.81L0 1.01L6.29 1.01Q9.50 1.01 11.33 2.54Q13.15 4.08 13.15 6.77L13.15 6.77Q13.15 8.74 12.16 10.09Q11.16 11.45 9.31 12.05L9.31 12.05L13.42 17.81ZM6.24 10.97Q8.74 10.97 10.06 9.86Q11.38 8.76 11.38 6.77L11.38 6.77Q11.38 4.73 10.06 3.64Q8.74 2.54 6.24 2.54L6.24 2.54L1.78 2.54L1.78 10.97L6.24 10.97ZM22.39 16.42Q23.57 16.42 24.56 16.00Q25.56 15.58 26.26 14.76L26.26 14.76L27.22 15.86Q26.38 16.87 25.13 17.40Q23.88 17.93 22.37 17.93L22.37 17.93Q20.42 17.93 18.91 17.10Q17.40 16.27 16.56 14.81Q15.72 13.34 15.72 11.50L15.72 11.50Q15.72 9.65 16.52 8.18Q17.33 6.72 18.74 5.90Q20.16 5.09 21.96 5.09L21.96 5.09Q23.64 5.09 25.00 5.86Q26.35 6.62 27.16 7.99Q27.96 9.36 28.01 11.11L28.01 11.11L17.64 13.13Q18.12 14.66 19.38 15.54Q20.64 16.42 22.39 16.42L22.39 16.42ZM21.96 6.55Q20.64 6.55 19.60 7.16Q18.55 7.78 17.96 8.87Q17.38 9.96 17.38 11.38L17.38 11.38Q17.38 11.74 17.40 11.90L17.40 11.90L26.30 10.18Q26.02 8.59 24.84 7.57Q23.66 6.55 21.96 6.55L21.96 6.55ZM36.72 17.93Q34.85 17.93 33.37 17.11Q31.90 16.30 31.06 14.82Q30.22 13.34 30.22 11.50L30.22 11.50Q30.22 9.65 31.06 8.18Q31.90 6.72 33.37 5.90Q34.85 5.09 36.72 5.09L36.72 5.09Q38.35 5.09 39.64 5.72Q40.92 6.36 41.66 7.58L41.66 7.58L40.39 8.45Q39.77 7.51 38.81 7.04Q37.85 6.58 36.72 6.58L36.72 6.58Q35.35 6.58 34.26 7.19Q33.17 7.80 32.56 8.93Q31.94 10.06 31.94 11.50L31.94 11.50Q31.94 12.96 32.56 14.08Q33.17 15.19 34.26 15.80Q35.35 16.42 36.72 16.42L36.72 16.42Q37.85 16.42 38.81 15.96Q39.77 15.50 40.39 14.57L40.39 14.57L41.66 15.43Q40.92 16.66 39.62 17.29Q38.33 17.93 36.72 17.93L36.72 17.93ZM46.63 7.66Q47.23 6.38 48.42 5.74Q49.61 5.09 51.36 5.09L51.36 5.09L51.36 6.74L50.95 6.72Q48.96 6.72 47.83 7.94Q46.70 9.17 46.70 11.38L46.70 11.38L46.70 17.81L45 17.81L45 5.18L46.63 5.18L46.63 7.66ZM59.71 16.42Q60.89 16.42 61.88 16.00Q62.88 15.58 63.58 14.76L63.58 14.76L64.54 15.86Q63.70 16.87 62.45 17.40Q61.20 17.93 59.69 17.93L59.69 17.93Q57.74 17.93 56.23 17.10Q54.72 16.27 53.88 14.81Q53.04 13.34 53.04 11.50L53.04 11.50Q53.04 9.65 53.84 8.18Q54.65 6.72 56.06 5.90Q57.48 5.09 59.28 5.09L59.28 5.09Q60.96 5.09 62.32 5.86Q63.67 6.62 64.48 7.99Q65.28 9.36 65.33 11.11L65.33 11.11L54.96 13.13Q55.44 14.66 56.70 15.54Q57.96 16.42 59.71 16.42L59.71 16.42ZM59.28 6.55Q57.96 6.55 56.92 7.16Q55.87 7.78 55.28 8.87Q54.70 9.96 54.70 11.38L54.70 11.38Q54.70 11.74 54.72 11.90L54.72 11.90L63.62 10.18Q63.34 8.59 62.16 7.57Q60.98 6.55 59.28 6.55L59.28 6.55ZM78.62 5.18L80.33 5.18L80.33 17.81L78.70 17.81L78.70 15.31Q77.93 16.58 76.67 17.26Q75.41 17.93 73.82 17.93L73.82 17.93Q72.05 17.93 70.61 17.11Q69.17 16.30 68.35 14.83Q67.54 13.37 67.54 11.50L67.54 11.50Q67.54 9.62 68.35 8.16Q69.17 6.70 70.61 5.89Q72.05 5.09 73.82 5.09L73.82 5.09Q75.36 5.09 76.60 5.72Q77.83 6.36 78.62 7.58L78.62 7.58L78.62 5.18ZM73.97 16.42Q75.29 16.42 76.36 15.80Q77.42 15.19 78.04 14.06Q78.65 12.94 78.65 11.50L78.65 11.50Q78.65 10.06 78.04 8.93Q77.42 7.80 76.36 7.19Q75.29 6.58 73.97 6.58L73.97 6.58Q72.62 6.58 71.56 7.19Q70.49 7.80 69.88 8.93Q69.26 10.06 69.26 11.50L69.26 11.50Q69.26 12.94 69.88 14.06Q70.49 15.19 71.56 15.80Q72.62 16.42 73.97 16.42L73.97 16.42ZM91.73 1.01Q94.94 1.01 96.77 2.54Q98.59 4.08 98.59 6.77L98.59 6.77Q98.59 9.46 96.77 10.98Q94.94 12.50 91.73 12.50L91.73 12.50L87.22 12.50L87.22 17.81L85.44 17.81L85.44 1.01L91.73 1.01ZM91.68 10.94Q94.18 10.94 95.50 9.85Q96.82 8.76 96.82 6.77L96.82 6.77Q96.82 4.73 95.50 3.64Q94.18 2.54 91.68 2.54L91.68 2.54L87.22 2.54L87.22 10.94L91.68 10.94ZM111.82 5.18L113.52 5.18L113.52 17.81L111.89 17.81L111.89 15.31Q111.12 16.58 109.86 17.26Q108.60 17.93 107.02 17.93L107.02 17.93Q105.24 17.93 103.80 17.11Q102.36 16.30 101.54 14.83Q100.73 13.37 100.73 11.50L100.73 11.50Q100.73 9.62 101.54 8.16Q102.36 6.70 103.80 5.89Q105.24 5.09 107.02 5.09L107.02 5.09Q108.55 5.09 109.79 5.72Q111.02 6.36 111.82 7.58L111.82 7.58L111.82 5.18ZM107.16 16.42Q108.48 16.42 109.55 15.80Q110.62 15.19 111.23 14.06Q111.84 12.94 111.84 11.50L111.84 11.50Q111.84 10.06 111.23 8.93Q110.62 7.80 109.55 7.19Q108.48 6.58 107.16 6.58L107.16 6.58Q105.82 6.58 104.75 7.19Q103.68 7.80 103.07 8.93Q102.46 10.06 102.46 11.50L102.46 11.50Q102.46 12.94 103.07 14.06Q103.68 15.19 104.75 15.80Q105.82 16.42 107.16 16.42L107.16 16.42ZM128.09 0L129.79 0L129.79 17.81L128.16 17.81L128.16 15.31Q127.39 16.58 126.13 17.26Q124.87 17.93 123.29 17.93L123.29 17.93Q121.51 17.93 120.07 17.11Q118.63 16.30 117.82 14.83Q117.00 13.37 117.00 11.50L117.00 11.50Q117.00 9.62 117.82 8.16Q118.63 6.70 120.07 5.89Q121.51 5.09 123.29 5.09L123.29 5.09Q124.82 5.09 126.06 5.72Q127.30 6.36 128.09 7.58L128.09 7.58L128.09 0ZM123.43 16.42Q124.75 16.42 125.82 15.80Q126.89 15.19 127.50 14.06Q128.11 12.94 128.11 11.50L128.11 11.50Q128.11 10.06 127.50 8.93Q126.89 7.80 125.82 7.19Q124.75 6.58 123.43 6.58L123.43 6.58Q122.09 6.58 121.02 7.19Q119.95 7.80 119.34 8.93Q118.73 10.06 118.73 11.50L118.73 11.50Q118.73 12.94 119.34 14.06Q119.95 15.19 121.02 15.80Q122.09 16.42 123.43 16.42L123.43 16.42Z" transform="translate(36, 9.096)"></path></svg>